# xmcd
#
# Track frame offsets:
#	300
#	16012
#	32109
#	43707
#	53840
#	62815
#	77433
#	89314
#	116822
#	131641
#	147482
#	161613
#	174689
#	193625
#	206416
#	220231
#	236272
#	251908
#	264699
#	281581
#	298487
#	307976
#	322384
#
# Disc length: 4453 seconds
#
# Revision: 1
# Processed by: cddbd v1.5.2PL0 Copyright (c) Steve Scherf et al.
# Submitted via: audiograbber 1.83.01
#
DISCID=64116117
DTITLE=Various Artist - Hotlanta Soul 3 - Holding The Losing Hand
DYEAR=2005
DGENRE=Soul
TTITLE0=Sam Dees - I know Where You're Coming From
TTITLE1=Roszetta Johnson - A Woman's Way
TTITLE2=Bill Brandon - Doing Right Don't Wrong Nobody
TTITLE3=C L Blast - Fools Love
TTITLE4=King Hannibal - Good Times
TTITLE5=Jimmy Lewis - That's How Long I'll Be Loving You
TTITLE6=Sam Dees - Everybody's Trying To Get Over
TTITLE7=Johnny Smith Congregation - A Better Way
TTITLE8=Delia Gartrell - Beautiful Day (Keep Moving On)
TTITLE9=Bill Brandon - Johnnie Mae Wright
TTITLE10=Deep Velvet - Hanna Mae
TTITLE11=Frederick Knight - We've Got To Sing Together
TTITLE12=Roszetta Johnson - Personal Woman
TTITLE13=Sam Dees - Claim Jumping
TTITLE14=Bill Brandon - Stop This Merry-Go-Round
TTITLE15=Roszetta Johnson - Holding The Losing Hand
TTITLE16=Bill Brandon And Lorraine Johnson - Let's Make Our New Love Something 
TTITLE16=Special
TTITLE17=King Hannibal - I Got That Will
TTITLE18=Peggy Scott - Men
TTITLE19=Dee Ervin - If It Wasn't For The Children
TTITLE20=Phase Four - I'm So Glad (Extended Version)
TTITLE21=Bill Brandon - I Am Free Of Your Love
TTITLE22=Roszetta Johnson - (I Like Making That) Early Morning Love
EXTD=
EXTT0=
EXTT1=
EXTT2=
EXTT3=
EXTT4=
EXTT5=
EXTT6=
EXTT7=
EXTT8=
EXTT9=
EXTT10=
EXTT11=
EXTT12=
EXTT13=
EXTT14=
EXTT15=
EXTT16=
EXTT17=
EXTT18=
EXTT19=
EXTT20=
EXTT21=
EXTT22=
PLAYORDER=
